<svg xmlns="http://www.w3.org/2000/svg" xmlns:xlink="http://www.w3.org/1999/xlink" width="400" zoomAndPan="magnify" viewBox="0 0 300 299.999988" height="400" preserveAspectRatio="xMidYMid meet" version="1.0"><defs><clipPath id="43ecf794c2"><path d="M 3 30 L 298.753906 30 L 298.753906 271.945312 L 3 271.945312 Z M 3 30 " clip-rule="nonzero"/></clipPath></defs><path fill="#ffffff" d="M 224.191406 140.855469 C 216.390625 134.691406 205.910156 130.9375 194.46875 130.933594 C 183.03125 130.9375 172.542969 134.691406 164.742188 140.855469 C 156.804688 147.136719 151.539062 155.976562 150.9375 166.015625 C 150.328125 176.332031 154.757812 185.925781 162.550781 193.03125 C 170.496094 200.257812 181.816406 204.796875 194.476562 204.796875 C 207.128906 204.796875 218.441406 200.257812 226.375 193.023438 C 234.167969 185.925781 238.605469 176.332031 238.003906 166.011719 C 237.398438 155.984375 232.128906 147.136719 224.191406 140.855469 Z M 224.191406 140.855469 " fill-opacity="1" fill-rule="nonzero"/><g clip-path="url(#43ecf794c2)"><path fill="#ffffff" d="M 297.542969 164.050781 C 295.808594 151.808594 291.570312 140.3125 285.066406 129.835938 C 279.089844 120.214844 271.417969 111.789062 262.285156 104.691406 L 262.296875 104.675781 L 262.050781 104.597656 C 261.863281 104.429688 261.714844 104.234375 261.519531 104.074219 L 165.964844 33.148438 C 160.199219 28.523438 151.75 29.441406 147.113281 35.25 C 142.488281 41.039062 143.417969 49.492188 149.214844 54.128906 L 189.367188 83.929688 L 60.355469 83.929688 C 51.136719 83.929688 43.589844 91.480469 43.589844 100.714844 C 43.589844 109.949219 51.136719 117.503906 60.355469 117.503906 L 108.328125 117.503906 L 9.210938 202.121094 C 2.183594 208.152344 1.367188 218.761719 7.394531 225.792969 C 10.714844 229.667969 15.40625 231.65625 20.128906 231.65625 C 23.992188 231.65625 27.867188 230.324219 31.03125 227.613281 L 91.074219 176.074219 C 90.925781 181.496094 90.8125 186.402344 90.839844 187.902344 C 90.839844 211.511719 117.355469 271.945312 195.691406 271.945312 C 251.46875 271.945312 298.152344 238.371094 298.152344 182.898438 C 298.636719 176.625 298.429688 170.328125 297.542969 164.050781 Z M 254.988281 185.679688 C 252.300781 192.976562 247.949219 199.804688 242.015625 205.769531 C 229.875 217.988281 212.890625 224.90625 194.484375 224.933594 C 176.078125 224.96875 159.078125 218.105469 146.933594 205.917969 C 141 199.972656 136.640625 193.152344 133.945312 185.867188 C 131.316406 178.714844 130.289062 171.128906 130.96875 163.472656 C 131.625 155.976562 133.863281 148.839844 137.476562 142.378906 C 141.027344 136.027344 145.90625 130.292969 151.921875 125.433594 C 163.722656 115.9375 178.738281 110.800781 194.46875 110.78125 C 210.203125 110.761719 225.210938 115.855469 237.019531 125.3125 C 243.03125 130.144531 247.90625 135.859375 251.449219 142.199219 C 255.0625 148.652344 257.308594 155.785156 257.972656 163.269531 C 258.644531 170.9375 257.625 178.519531 254.988281 185.679688 Z M 254.988281 185.679688 " fill-opacity="1" fill-rule="nonzero"/></g></svg>