<svg xmlns="http://www.w3.org/2000/svg" xmlns:xlink="http://www.w3.org/1999/xlink" width="500" zoomAndPan="magnify" viewBox="0 0 375 374.999991" height="500" preserveAspectRatio="xMidYMid meet" version="1.0"><defs><clipPath id="e3b0cd43b7"><path d="M 58 81 L 318.75 81 L 318.75 294.703125 L 58 294.703125 Z M 58 81 " clip-rule="nonzero"/></clipPath></defs><path fill="#ffffff" d="M 253.011719 179.347656 C 246.136719 173.921875 236.898438 170.617188 226.8125 170.613281 C 216.726562 170.617188 207.480469 173.921875 200.605469 179.347656 C 193.605469 184.871094 188.964844 192.652344 188.433594 201.488281 C 187.894531 210.5625 191.804688 219.007812 198.671875 225.257812 C 205.679688 231.617188 215.65625 235.613281 226.820312 235.613281 C 237.972656 235.613281 247.945312 231.617188 254.941406 225.253906 C 261.808594 219.007812 265.722656 210.5625 265.191406 201.480469 C 264.660156 192.660156 260.011719 184.871094 253.011719 179.347656 Z M 253.011719 179.347656 " fill-opacity="1" fill-rule="nonzero"/><g clip-path="url(#e3b0cd43b7)"><path fill="#ffffff" d="M 317.679688 199.753906 C 316.148438 188.984375 312.414062 178.867188 306.679688 169.648438 C 301.410156 161.179688 294.648438 153.765625 286.597656 147.519531 L 286.609375 147.507812 L 286.390625 147.4375 C 286.226562 147.289062 286.09375 147.117188 285.921875 146.976562 L 201.683594 84.5625 C 196.597656 80.492188 189.148438 81.300781 185.0625 86.414062 C 180.984375 91.507812 181.808594 98.945312 186.914062 103.023438 L 222.3125 129.25 L 108.578125 129.25 C 100.449219 129.25 93.800781 135.894531 93.800781 144.019531 C 93.800781 152.144531 100.449219 158.792969 108.578125 158.792969 L 150.871094 158.792969 L 63.492188 233.261719 C 57.296875 238.566406 56.574219 247.902344 61.890625 254.089844 C 64.816406 257.5 68.953125 259.25 73.113281 259.25 C 76.519531 259.25 79.9375 258.078125 82.726562 255.691406 L 135.660156 210.339844 C 135.53125 215.109375 135.429688 219.425781 135.453125 220.746094 C 135.453125 241.519531 158.828125 294.703125 227.886719 294.703125 C 277.0625 294.703125 318.21875 265.15625 318.21875 216.34375 C 318.644531 210.824219 318.460938 205.28125 317.679688 199.753906 Z M 280.164062 218.789062 C 277.792969 225.210938 273.957031 231.222656 268.726562 236.46875 C 258.027344 247.222656 243.050781 253.308594 226.824219 253.332031 C 210.597656 253.363281 195.609375 247.324219 184.90625 236.597656 C 179.671875 231.371094 175.832031 225.367188 173.453125 218.953125 C 171.136719 212.660156 170.230469 205.984375 170.828125 199.246094 C 171.410156 192.652344 173.382812 186.371094 176.570312 180.6875 C 179.695312 175.097656 184 170.050781 189.304688 165.773438 C 199.707031 157.417969 212.945312 152.898438 226.8125 152.878906 C 240.679688 152.859375 253.910156 157.347656 264.320312 165.667969 C 269.625 169.921875 273.921875 174.949219 277.042969 180.527344 C 280.230469 186.207031 282.210938 192.480469 282.796875 199.070312 C 283.386719 205.820312 282.488281 212.488281 280.164062 218.789062 Z M 280.164062 218.789062 " fill-opacity="1" fill-rule="nonzero"/></g></svg>